<svg xmlns="http://www.w3.org/2000/svg" viewBox="0 0 1650.9 1646.34"><g id="background"><rect x="5.06" y="0.5" width="1645.34" height="1645.34" rx="368.45" style="fill:#fff"/><rect x="5.06" y="0.5" width="1645.34" height="1645.34" rx="368.45" style="fill:none;stroke:#fff;stroke-miterlimit:10"/></g><g id="Layer_1" data-name="Layer 1"><path d="M1255.19,151.2c98.65,62.6,185.34,158.07,188.11,171.52.61,17.19-14.41,15.73-18.76,15.79C1404.05,325.42,1289.92,156,1039.35,84,741-3.6,399.07,98.31,204.48,362.77c-4.68.12-9.34.14-14,0-2.21-2.23-4.41-4.42-6.64-6.59,0-5.75-1.52-12.48,3.08-17C472.76-19.87,929.9-59,1255.19,151.2Z" transform="translate(5.06 0.5)"/><path d="M867.12,123.51q4.23,4.26,8.34,8.63c0,3.74,0,7.48,0,11.23-14.3,13.95,3.73,6.59-64.61,8.32C534.49,154,264.2,339.27,177.1,635.67,121.8,825.62,194.19,888.15,60.51,997c-4.31.08-8.71.47-13-.43-8-3.7-10-15.46-4.69-22.07,2-2,61-40.63,74.47-112.37,3.81-15.17,3.34-30.86,4.83-46.3C119,533.38,318.44,232,639.07,147,709.19,124.94,796.83,121.05,867.12,123.51Z" transform="translate(5.06 0.5)"/><path d="M955.07,145.84c4.62-6.05,11.78-9.78,19.41-7.24,271.19,67.75,442.75,251.33,513.63,462.59,88.31,266-17.39,676.64-49.6,734.69a90.83,90.83,0,0,1-18.65.39c-6.26-6.43-5.75-15.67-2.86-23.55,54.31-167.07,76.5-337.3,76.25-417.71.36-.28,1.06-.88,1.43-1.16-.92-87.49,25.93-325.83-209.81-558.92C1184.61,240.5,1056.51,184.09,968,167.23c-5.68-.73-9.36-5.29-13.15-9.06C954.92,154.06,955,150,955.07,145.84Z" transform="translate(5.06 0.5)"/><path d="M1420.9,746c8.8,39,7.37,177-14.05,316.86-15.28,11.93-20.53,4.39-26.63-.63-1.26-17.59,3.4-34.73,5.08-52.14,5.69-34.37,9.77-112.52,11.08-122.65-.17-54.06,22.73-273.19-158.16-460.22-48-46.17.42-4.75-73.57-65.43-225.91-166.54-534.47-143.22-731.21,40-26.94,28.06-40.82-3.63-27.64-13.44C765,41.28,1361.39,262.58,1420.9,746Z" transform="translate(5.06 0.5)"/><path d="M1313,701.51c7.62,31.86,4.84,26-2.7,35.77a103.69,103.69,0,0,1-13.09-.41c-4.27-2.25-7-6.79-8.3-11.27-27.08-107.55-73.7-200.21-173.71-277.81-74.16-58.16-168-90.07-219.72-93.84,3.15-.57,6.32-1.1,9.49-1.62-26.8,2-115.63-24.69-261.9,30.11C455.12,460.57,372.13,633.32,359.25,717.5c-.33-1.43-.63-2.88-1-4.29-.18,5.27-8.63,56.42-9.14,58.43-2.39,7.65-10.17,11.47-17.84,10.33-10.46-9.79-12.94-5.53-7.11-37C352.5,558,491.73,390.56,690.12,336.3,1020.72,263.13,1256.16,469,1313,701.51Z" transform="translate(5.06 0.5)"/><path d="M149.2,417.78c4.93,4.46,9.94,10.6,7.44,17.76-4.67,12.07-88.8,140-101.77,329-5.88,35.81,3.54,63.93-8.28,70.53C-1.77,869.81,24.81,611.85,125,434.13,137.52,412.94,135.36,418.66,149.2,417.78Z" transform="translate(5.06 0.5)"/><path d="M846.16,417.78c4.54,3.93,8.18,9.39,8.26,15.57-1.49,3.93-4,7.28-6.42,10.7-2.19.65-4.36,1.3-6.51,2-30,.58-74.4-3.25-145.6,21.5C625,493.63,568.7,535.79,528.58,586.68c-148.13,181.74-19.44,322.37-182.85,537.06q-7.31.06-14.54-.12c-1.88-1.91-3.76-3.77-5.62-5.63-.78-2.7-1.56-5.34-2.38-8,4.94-12.4,97.42-136.36,92-275.89,2.27-32.37-3.28-165.19,109.08-286.48,48-52.46,110.32-91.18,178-112.72C768.32,417.79,778,416.7,846.16,417.78Z" transform="translate(5.06 0.5)"/><path d="M1502.29,418.44a87.34,87.34,0,0,1,10.41,2.13c50.69,73.08,111.82,262.1,109.2,378.76,2.66,96-12.92,180.6-19.05,194.84-6.71,4.17-14.29,2.92-21.27.26-1.55-2.86-3.58-5.56-4.42-8.73.6-5.54,1.68-11,2.4-16.54,27.74-125.82,5.5-258.83,4.87-270.19-.29,1.09-.86,3.25-1.15,4.36-.09-12.7-16.84-129.75-89-258.38C1485.92,430.58,1491,421.19,1502.29,418.44Z" transform="translate(5.06 0.5)"/><path d="M925.1,430.92c66.43,2.77,296.12,124.82,304.32,376.66,2.8,180.41-33.59,356-95.2,503.69-15.16,4.21-13.42,4-23.93-4.35-.28-24.28,6.45-19.78,25.42-82.27,49.53-144.44,88-383.9,49-511.3-19.48-72.77-78.8-159.8-162.84-211.07-47.76-29.84-86.53-39.18-100.31-43.75C906.8,454.36,910.9,430.69,925.1,430.92Z" transform="translate(5.06 0.5)"/><path d="M357.6,440.2c7.19-1,14.68-.45,20.12,4.89.88,3.56,2.07,7.08,2.39,10.74C377.84,461.1,261,597.69,251,773c-3.23,19.09,1.05,98.85-17.26,145.07C196.21,1037.52,87,1105.86,73,1094c-6.32-3.42-6-10.92-6-17,11.37-14.48,88.2-43.74,129.49-142,39.42-86.42,7.25-135,45.22-273.07C264.45,581,303.93,504.85,357.6,440.2Z" transform="translate(5.06 0.5)"/><path d="M991,565l4.79.86a17.48,17.48,0,0,0-2.21,4.71l7.41,1.06c82.58,57.21,135.45,160.75,129.83,259.65-2.39,2-4.79,4-7.14,6-4.56.07-9.08.11-13.62.13-3.29-3.85-7.69-7.8-7.53-13.3,3.92-232.18-293.59-394-491.3-183-4.64,5.71-13.13,5.5-19.53,3.44a74.73,74.73,0,0,1-7.08-7.92C580.4,599.85,783.13,433.57,991,565Z" transform="translate(5.06 0.5)"/><path d="M800.73,614.34c19.7-.7,20.32,28.61-.14,29.06C725.13,652,655.53,712.29,643.45,795.45c-5.46,25.56,4.64,109-32.73,233C605.29,1047,581.07,1117,568.32,1130q-7.05-.16-14.09-.06c-6.91-4.87-8.43-13.87-5.05-21.4,75.6-161.34,56.13-274.64,69.46-335.94C644.09,678.27,719.58,623.33,800.73,614.34Z" transform="translate(5.06 0.5)"/><path d="M891.48,638.53c4.68-4.48,11.11-10.16,18-6.48,59.78,26.36,105.6,82.53,119,146.55,11.26,43.55,9,229.64-63.85,426.4-17.29,9.59-28.64-1.73-23-18.67A1060.62,1060.62,0,0,0,1004,800.79l-1.45-1.23c0-29.81-26-96.68-85.68-131.27-8.32-5.09-17.49-8.73-25.24-14.74Q891.4,646,891.48,638.53Z" transform="translate(5.06 0.5)"/><path d="M540.32,706.27c4.5,0,9,0,13.48,0l6.71,6.53c2.61,16.81-4.86,13.73-15.89,78.84C542.24,809,568,1161.14,236.55,1349.35c-4.88,2.34-10.57,1-15.81,1.27-7-6-8-15.83-3.47-23.64,124.4-69.46,213.73-175.93,262.59-307.18C534.09,866.55,498,757.81,540.32,706.27Z" transform="translate(5.06 0.5)"/><path d="M935.23,817.86c2.23,17.06-1.31,34.12-.84,51.22.86,7.18-5.4,11.45-10.29,15.32A56.7,56.7,0,0,1,911,881.6c-1.63-2.25-3.29-4.46-5-6.67-.84-21.15.9-42.36-.39-63.49-15.54-93.65-145.62-93.43-164.48-6.26-4.38,35.32-1.35,71.34-7.32,106.58-3.72,3.48-7.22,8.63-13.09,7.59-5.38.53-9.29-3.58-13.38-6.28a161.64,161.64,0,0,1,1.7-38c1.21-26.94-1.17-54.28,5.17-80.75C747.46,674.1,929.58,690.22,935.23,817.86Z" transform="translate(5.06 0.5)"/><path d="M815.78,810.5q6.13-.09,12.27-.2c2.64,2.27,5.51,4.35,7.78,7.05,4.78,10.64,24,431-355.52,723.61-4.74.18-9.47.18-14.19.1-10.62-15.51-8.35-19.65,5.4-29.88,208-162,326-403.27,335.16-640.24C811.63,829.15,801.07,827.2,815.78,810.5Z" transform="translate(5.06 0.5)"/><path d="M1306.8,810.44q6,0,12,0c2.76,2.17,5.73,4.15,8.2,6.73,5.5,34-6.4,149.65-11.29,190.83-38.75,295.7-186,540.87-207.53,563.8-6.22-.59-14.22,1.82-18.37-4.29-4.32-6.41-2.51-15.34,1.7-21.36a1318.9,1318.9,0,0,0,132.74-276.38c65.87-200.15,65.35-303.44,70.79-336.71l.9,2.84s.5,5.74,3-116.95Q1302.81,814.71,1306.8,810.44Z" transform="translate(5.06 0.5)"/><path d="M328,866c5.87-1,9.61,4.44,13.74,7.55.85,48.72-39.34,216-214.63,312-3.7,2-8.12,1-12.13,1.33-2.72-1.82-5.48-3.56-8.28-5.26a93.61,93.61,0,0,1-.64-16c12.42-11.14,159.46-72.28,202.47-258.47C314.27,886.29,311.09,866.58,328,866Z" transform="translate(5.06 0.5)"/><path d="M1102.76,891.35l8.24-4.91,9.57-.12c16.79,15.75,4.46,16.6,6.3,46-38.55,424.58-280.29,652.78-293.13,687.53-7.32,4.11-15.81,3.23-23.87,3.09-7-6.2-9-17.76-1.94-24.73,169.93-190.43,266.44-420.08,290-666C1100.92,918.74,1098.09,904.54,1102.76,891.35Z" transform="translate(5.06 0.5)"/><path d="M900.35,948.31c4.24-1.61,8.33-4.21,13-4.41,7.14,1.82,14.54,8.3,12.46,16.38C900.86,1161.7,796.36,1343.36,780.5,1352a65.52,65.52,0,0,0-11.9-1.55,38.33,38.33,0,0,1-8-13.15c9.88-23.76,97.94-142.47,134.42-361.9A116.38,116.38,0,0,1,900.35,948.31Z" transform="translate(5.06 0.5)"/><path d="M697.81,972.65c7.59-4.13,20-5,23.74,4.61,4.47,20.42-57.94,324.69-335.44,510q-5,.06-9.86.29c-10-9.09-8.79-6.78-8.29-21.62,23.1-18.21,48-34.3,69.87-54C658.93,1225.66,687.66,993.71,697.81,972.65Z" transform="translate(5.06 0.5)"/><path d="M293.45,1156.26q3.32,2.73,6.69,5.44c.9,3.62,3.07,7.47,1.43,11.23-6.63,19.51-114.82,101.12-135,98.44-5.21.72-8.32-3.87-11.66-7,.85-32.12,15.64-8.32,101.59-84.76C287.42,1151.94,274.17,1157.54,293.45,1156.26Z" transform="translate(5.06 0.5)"/><path d="M512.26,1189.15c69.87,6.63-170.8,231.72-217.19,235.23-3.13-2.91-6.24-5.79-9.29-8.72q.17-6.53.49-13c24.34-22.25,59.51-30.58,151.11-126C503.93,1199.69,499.51,1187.93,512.26,1189.15Z" transform="translate(5.06 0.5)"/><path d="M1329.85,1265.25a26.76,26.76,0,0,1,17.55-5.15c12,12.23,13.56,8.45-15.45,85.78-2.42,7.91-53.59,140.08-69.43,145.48-3.87,0-7.59-1.21-11.36-1.9-4.54-4.91-7.09-11.07-5.56-17.82C1286.74,1395.85,1327.8,1270.77,1329.85,1265.25Z" transform="translate(5.06 0.5)"/><path d="M913.34,1295.24c2,3.29,5,6.3,5.42,10.35,3.55,22.13-127.6,229-221.28,306.81q-6.11-.12-12.19-.14c-2.21-2.25-4.44-4.46-6.63-6.65-.16-4.93-.12-9.84.19-14.7,67.95-63.33,143.28-158.76,199.82-264C898.61,1292.05,890.32,1295,913.34,1295.24Z" transform="translate(5.06 0.5)"/><path d="M1075.54,1373.06c2.22-5.11,6.27-9,10.77-12.17,3.09,0,6.2,0,9.31,0,6.1,4.42,12,11.33,8.41,19.35-51.49,107.75-120.19,206.85-143.87,232-4.21,0-8.43.06-12.62.12l-7-6.63c-.07-4.46-.09-8.87,0-13.29C992.37,1523.82,1038.21,1450.6,1075.54,1373.06Z" transform="translate(5.06 0.5)"/><path d="M760.64,1380.65c3.93,22.14-163.69,207.92-185,203.63-7-.25-10.67-6.55-13.76-11.9,3.33-15.57,18.8-23.06,29.06-33.63,50.39-44,105.36-109.11,141-160.27C745.23,1360.45,759.3,1372.27,760.64,1380.65Z" transform="translate(5.06 0.5)"/><path d="M163.51,1093.09c-74-.92-74-.92-83.06-.92-8.32,0-14.57,0-85.51.92C35.27,944,96.47,687.51,123.24,554.17c4.46-22.23,8.73-43.52,15.1-78.71,35.7,1.85,51.66,1.85,70.39,1.85,20.81,0,20.81,0,106.69-2.78,21-.92,51-1.85,67.66-1.85,57.58,0,81.76,7.41,105.5,34.26,29.06,31.49,37.84,88,24.46,154.64C486.64,793.07,398.92,881,293.48,881c-13.18,0-22-.92-39.31-4.63,2.4-36.11,4.37-118.52,3.75-150,8.65,1.85,13.32,2.78,20.95,2.78,30.52,0,52-20.37,58.83-54.63,5.77-28.71-5.13-43.53-31.49-43.53-9,0-18.23.93-40.47,4.63-23.26,91.68-71.19,302.8-92.2,407.44Z" transform="translate(5.06 0.5)" style="fill:#900000"/><path d="M728.37,988.46c3.08-74.08,3.15-195.39,2.78-245.39,12.63,2.78,18.68,3.7,29.09,3.7,45.78,0,78.55-25,86.54-64.82,3.53-17.59-.94-33.33-10.74-39.81C825,634.73,812.42,632,781.21,632c-9.72,0-18,0-42.69,1.85-20.1,75.93-74.11,313.91-104,459.29-76.81-.92-77.51-.92-90-.92-13.88,0-20.81,0-86.9.92,56.75-196.31,89.3-334.28,147.56-617.63,35,1.85,51.66,1.85,68.31,1.85,18.73,0,18.73,0,90-2.78,24.47-.92,53.79-1.85,78.07-1.85,81.16,0,115.93,6.48,147.22,26.85,38,25,51.3,79.64,37.36,149.09C1009.66,731,968.31,788.44,898.58,828.26c2.89,68.52,7.19,71.3,14.2,233.35l1.31,31.48c-71.26-.92-77.51-.92-93.46-.92s-24.28,0-95.92.92l.77-31.48Z" transform="translate(5.06 0.5)" style="fill:#900000"/><path d="M1032.07,792.15c20.26-100.94,68.77-187,137-243.54,66.65-55.56,146.13-85.19,229.37-85.19,170,0,255.21,121.31,217.48,309.28-40.71,202.79-181.89,332.43-361.55,332.43-90.18,0-155-29.63-195.63-89.82C1019.93,959.75,1012.19,891.23,1032.07,792.15Zm258.38,143.52c61,0,125.49-72.22,143.34-161.12,16.54-82.41-15.4-144.45-74.37-144.45-63.12,0-127.38,71.3-145.23,160.19C1197.28,874.56,1229.41,935.67,1290.45,935.67Z" transform="translate(5.06 0.5)" style="fill:#900000"/></g></svg>