<svg id="Layer_1" data-name="Layer 1" xmlns="http://www.w3.org/2000/svg" viewBox="0 0 7554.6 1600"><path d="M1255.19,151.2c98.65,62.6,185.34,158.07,188.11,171.52.61,17.19-14.41,15.73-18.76,15.79C1404.05,325.42,1289.92,156,1039.35,84,741-3.6,399.07,98.31,204.48,362.77c-4.68.12-9.34.14-14,0-2.21-2.23-4.41-4.42-6.64-6.59,0-5.75-1.52-12.48,3.08-17C472.76-19.87,929.9-59,1255.19,151.2Z" transform="translate(-23.14 -23.15)"/><path d="M867.12,123.51q4.23,4.26,8.34,8.63c0,3.74,0,7.48,0,11.23-14.3,13.95,3.73,6.59-64.61,8.32C534.49,154,264.2,339.27,177.1,635.67,121.8,825.62,194.19,888.15,60.51,997c-4.31.08-8.71.47-13-.43-8-3.7-10-15.46-4.69-22.07,2-2,61-40.63,74.47-112.37,3.81-15.17,3.34-30.86,4.83-46.3C119,533.38,318.44,232,639.07,147,709.19,124.94,796.83,121.05,867.12,123.51Z" transform="translate(-23.14 -23.15)"/><path d="M955.07,145.84c4.62-6.05,11.78-9.78,19.41-7.24,271.19,67.75,442.75,251.33,513.63,462.59,88.31,266-17.39,676.64-49.6,734.69a90.83,90.83,0,0,1-18.65.39c-6.26-6.43-5.75-15.67-2.86-23.55,54.31-167.07,76.5-337.3,76.25-417.71.36-.28,1.06-.88,1.43-1.16-.92-87.49,25.93-325.83-209.81-558.92C1184.61,240.5,1056.51,184.09,968,167.23c-5.68-.73-9.36-5.29-13.15-9.06C954.92,154.06,955,150,955.07,145.84Z" transform="translate(-23.14 -23.15)"/><path d="M1420.9,746c8.8,39,7.37,177-14.05,316.86-15.28,11.93-20.53,4.39-26.63-.63-1.26-17.59,3.4-34.73,5.08-52.14,5.69-34.37,9.77-112.52,11.08-122.65-.17-54.06,22.73-273.19-158.16-460.22-48-46.17.42-4.75-73.57-65.43-225.91-166.54-534.47-143.22-731.21,40-26.94,28.06-40.82-3.63-27.64-13.44C765,41.28,1361.39,262.58,1420.9,746Z" transform="translate(-23.14 -23.15)"/><path d="M1313,701.51c7.62,31.86,4.84,26-2.7,35.77a103.69,103.69,0,0,1-13.09-.41c-4.27-2.25-7-6.79-8.3-11.27-27.08-107.55-73.7-200.21-173.71-277.81-74.16-58.16-168-90.07-219.72-93.84,3.15-.57,6.32-1.1,9.49-1.62-26.8,2-115.63-24.69-261.9,30.11C455.12,460.57,372.13,633.32,359.25,717.5c-.33-1.43-.63-2.88-1-4.29-.18,5.27-8.63,56.42-9.14,58.43-2.39,7.65-10.17,11.47-17.84,10.33-10.46-9.79-12.94-5.53-7.11-37C352.5,558,491.73,390.56,690.12,336.3,1020.72,263.13,1256.16,469,1313,701.51Z" transform="translate(-23.14 -23.15)"/><path d="M149.2,417.78c4.93,4.46,9.94,10.6,7.44,17.76-4.67,12.07-88.8,140-101.77,329-5.88,35.81,3.54,63.93-8.28,70.53C-1.77,869.81,24.81,611.85,125,434.13,137.52,412.94,135.36,418.66,149.2,417.78Z" transform="translate(-23.14 -23.15)"/><path d="M846.16,417.78c4.54,3.93,8.18,9.39,8.26,15.57-1.49,3.93-4,7.28-6.42,10.7-2.19.65-4.36,1.3-6.51,2-30,.58-74.4-3.25-145.6,21.5C625,493.63,568.7,535.79,528.58,586.68c-148.13,181.74-19.44,322.37-182.85,537.06q-7.31.06-14.54-.12c-1.88-1.91-3.76-3.77-5.62-5.63-.78-2.7-1.56-5.34-2.38-8,4.94-12.4,97.42-136.36,92-275.89,2.27-32.37-3.28-165.19,109.08-286.48,48-52.46,110.32-91.18,178-112.72C768.32,417.79,778,416.7,846.16,417.78Z" transform="translate(-23.14 -23.15)"/><path d="M1502.29,418.44a87.34,87.34,0,0,1,10.41,2.13c50.69,73.08,111.82,262.1,109.2,378.76,2.66,96-12.92,180.6-19.05,194.84-6.71,4.17-14.29,2.92-21.27.26-1.55-2.86-3.58-5.56-4.42-8.73.6-5.54,1.68-11,2.4-16.54,27.74-125.82,5.5-258.83,4.87-270.19-.29,1.09-.86,3.25-1.15,4.36-.09-12.7-16.84-129.75-89-258.38C1485.92,430.58,1491,421.19,1502.29,418.44Z" transform="translate(-23.14 -23.15)"/><path d="M925.1,430.92c66.43,2.77,296.12,124.82,304.32,376.66,2.8,180.41-33.59,356-95.2,503.69-15.16,4.21-13.42,4-23.93-4.35-.28-24.28,6.45-19.78,25.42-82.27,49.53-144.44,88-383.9,49-511.3-19.48-72.77-78.8-159.8-162.84-211.07-47.76-29.84-86.53-39.18-100.31-43.75C906.8,454.36,910.9,430.69,925.1,430.92Z" transform="translate(-23.14 -23.15)"/><path d="M357.6,440.2c7.19-1,14.68-.45,20.12,4.89.88,3.56,2.07,7.08,2.39,10.74C377.84,461.1,261,597.69,251,773c-3.23,19.09,1.05,98.85-17.26,145.07C196.21,1037.52,87,1105.86,73,1094c-6.32-3.42-6-10.92-6-17,11.37-14.48,88.2-43.74,129.49-142,39.42-86.42,7.25-135,45.22-273.07C264.45,581,303.93,504.85,357.6,440.2Z" transform="translate(-23.14 -23.15)"/><path d="M991,565l4.79.86a17.48,17.48,0,0,0-2.21,4.71l7.41,1.06c82.58,57.21,135.45,160.75,129.83,259.65-2.39,2-4.79,4-7.14,6-4.56.07-9.08.11-13.62.13-3.29-3.85-7.69-7.8-7.53-13.3,3.92-232.18-293.59-394-491.3-183-4.64,5.71-13.13,5.5-19.53,3.44a74.73,74.73,0,0,1-7.08-7.92C580.4,599.85,783.13,433.57,991,565Z" transform="translate(-23.14 -23.15)"/><path d="M800.73,614.34c19.7-.7,20.32,28.61-.14,29.06C725.13,652,655.53,712.29,643.45,795.45c-5.46,25.56,4.64,109-32.73,233C605.29,1047,581.07,1117,568.32,1130q-7.05-.16-14.09-.06c-6.91-4.87-8.43-13.87-5.05-21.4,75.6-161.34,56.13-274.64,69.46-335.94C644.09,678.27,719.58,623.33,800.73,614.34Z" transform="translate(-23.14 -23.15)"/><path d="M891.48,638.53c4.68-4.48,11.11-10.16,18-6.48,59.78,26.36,105.6,82.53,119,146.55,11.26,43.55,9,229.64-63.85,426.4-17.29,9.59-28.64-1.73-23-18.67A1060.62,1060.62,0,0,0,1004,800.79l-1.45-1.23c0-29.81-26-96.68-85.68-131.27-8.32-5.09-17.49-8.73-25.24-14.74Q891.4,646,891.48,638.53Z" transform="translate(-23.14 -23.15)"/><path d="M540.32,706.27c4.5,0,9,0,13.48,0l6.71,6.53c2.61,16.81-4.86,13.73-15.89,78.84C542.24,809,568,1161.14,236.55,1349.35c-4.88,2.34-10.57,1-15.81,1.27-7-6-8-15.83-3.47-23.64,124.4-69.46,213.73-175.93,262.59-307.18C534.09,866.55,498,757.81,540.32,706.27Z" transform="translate(-23.14 -23.15)"/><path d="M935.23,817.86c2.23,17.06-1.31,34.12-.84,51.22.86,7.18-5.4,11.45-10.29,15.32A56.7,56.7,0,0,1,911,881.6c-1.63-2.25-3.29-4.46-5-6.67-.84-21.15.9-42.36-.39-63.49-15.54-93.65-145.62-93.43-164.48-6.26-4.38,35.32-1.35,71.34-7.32,106.58-3.72,3.48-7.22,8.63-13.09,7.59-5.38.53-9.29-3.58-13.38-6.28a161.64,161.64,0,0,1,1.7-38c1.21-26.94-1.17-54.28,5.17-80.75C747.46,674.1,929.58,690.22,935.23,817.86Z" transform="translate(-23.14 -23.15)"/><path d="M815.78,810.5q6.13-.09,12.27-.2c2.64,2.27,5.51,4.35,7.78,7.05,4.78,10.64,24,431-355.52,723.61-4.74.18-9.47.18-14.19.1-10.62-15.51-8.35-19.65,5.4-29.88,208-162,326-403.27,335.16-640.24C811.63,829.15,801.07,827.2,815.78,810.5Z" transform="translate(-23.14 -23.15)"/><path d="M1306.8,810.44q6,0,12,0c2.76,2.17,5.73,4.15,8.2,6.73,5.5,34-6.4,149.65-11.29,190.83-38.75,295.7-186,540.87-207.53,563.8-6.22-.59-14.22,1.82-18.37-4.29-4.32-6.41-2.51-15.34,1.7-21.36a1318.9,1318.9,0,0,0,132.74-276.38c65.87-200.15,65.35-303.44,70.79-336.71l.9,2.84s.5,5.74,3-116.95Q1302.81,814.71,1306.8,810.44Z" transform="translate(-23.14 -23.15)"/><path d="M328,866c5.87-1,9.61,4.44,13.74,7.55.85,48.72-39.34,216-214.63,312-3.7,2-8.12,1-12.13,1.33-2.72-1.82-5.48-3.56-8.28-5.26a93.61,93.61,0,0,1-.64-16c12.42-11.14,159.46-72.28,202.47-258.47C314.27,886.29,311.09,866.58,328,866Z" transform="translate(-23.14 -23.15)"/><path d="M1102.76,891.35l8.24-4.91,9.57-.12c16.79,15.75,4.46,16.6,6.3,46-38.55,424.58-280.29,652.78-293.13,687.53-7.32,4.11-15.81,3.23-23.87,3.09-7-6.2-9-17.76-1.94-24.73,169.93-190.43,266.44-420.08,290-666C1100.92,918.74,1098.09,904.54,1102.76,891.35Z" transform="translate(-23.14 -23.15)"/><path d="M900.35,948.31c4.24-1.61,8.33-4.21,13-4.41,7.14,1.82,14.54,8.3,12.46,16.38C900.86,1161.7,796.36,1343.36,780.5,1352a65.52,65.52,0,0,0-11.9-1.55,38.33,38.33,0,0,1-8-13.15c9.88-23.76,97.94-142.47,134.42-361.9A116.38,116.38,0,0,1,900.35,948.31Z" transform="translate(-23.14 -23.15)"/><path d="M697.81,972.65c7.59-4.13,20-5,23.74,4.61,4.47,20.42-57.94,324.69-335.44,510q-5,.06-9.86.29c-10-9.09-8.79-6.78-8.29-21.62,23.1-18.21,48-34.3,69.87-54C658.93,1225.66,687.66,993.71,697.81,972.65Z" transform="translate(-23.14 -23.15)"/><path d="M293.45,1156.26q3.32,2.73,6.69,5.44c.9,3.62,3.07,7.47,1.43,11.23-6.63,19.51-114.82,101.12-135,98.44-5.21.72-8.32-3.87-11.66-7,.85-32.12,15.64-8.32,101.59-84.76C287.42,1151.94,274.17,1157.54,293.45,1156.26Z" transform="translate(-23.14 -23.15)"/><path d="M512.26,1189.15c69.87,6.63-170.8,231.72-217.19,235.23-3.13-2.91-6.24-5.79-9.29-8.72q.17-6.53.49-13c24.34-22.25,59.51-30.58,151.11-126C503.93,1199.69,499.51,1187.93,512.26,1189.15Z" transform="translate(-23.14 -23.15)"/><path d="M1329.85,1265.25a26.76,26.76,0,0,1,17.55-5.15c12,12.23,13.56,8.45-15.45,85.78-2.42,7.91-53.59,140.08-69.43,145.48-3.87,0-7.59-1.21-11.36-1.9-4.54-4.91-7.09-11.07-5.56-17.82C1286.74,1395.85,1327.8,1270.77,1329.85,1265.25Z" transform="translate(-23.14 -23.15)"/><path d="M913.34,1295.24c2,3.29,5,6.3,5.42,10.35,3.55,22.13-127.6,229-221.28,306.81q-6.11-.12-12.19-.14c-2.21-2.25-4.44-4.46-6.63-6.65-.16-4.93-.12-9.84.19-14.7,67.95-63.33,143.28-158.76,199.82-264C898.61,1292.05,890.32,1295,913.34,1295.24Z" transform="translate(-23.14 -23.15)"/><path d="M1075.54,1373.06c2.22-5.11,6.27-9,10.77-12.17,3.09,0,6.2,0,9.31,0,6.1,4.42,12,11.33,8.41,19.35-51.49,107.75-120.19,206.85-143.87,232-4.21,0-8.43.06-12.62.12l-7-6.63c-.07-4.46-.09-8.87,0-13.29C992.37,1523.82,1038.21,1450.6,1075.54,1373.06Z" transform="translate(-23.14 -23.15)"/><path d="M760.64,1380.65c3.93,22.14-163.69,207.92-185,203.63-7-.25-10.67-6.55-13.76-11.9,3.33-15.57,18.8-23.06,29.06-33.63,50.39-44,105.36-109.11,141-160.27C745.23,1360.45,759.3,1372.27,760.64,1380.65Z" transform="translate(-23.14 -23.15)"/><path d="M1958.3,583.61c28,5,41,6,60,6,90,0,149-47,149-119,0-60-42-87-133-87-11,0-15-1-57,1-11,0-16,1-46,1-8,141-17,413-18,567-57-1-62-1-76-1-16,0-22,0-74,1,17-164,29-425,29-667,73,1,73,1,103,1,25,0,25,0,94-2,24-1,52-1,73-1,92,0,139,10,181,37,44,29,66,73,66,133,0,63-29,119-78,153-22,16-41,22-107,40,30,58,51,98,82,153,39,68,65,113,70,123l15,30c-55-1-62-1-80-1s-24,0-81,1l-13-31-27-67c-4-10-28-62-54-114l-63-126Z" transform="translate(-23.14 -23.15)"/><path d="M2604.3,851.61c99,0,216-3,283-6-2,30-6,83-7,107-126-2-160-2-228-2-65,0-95,0-258,2,16-167,31-487,31-667,120,1,155,1,241,1,88,0,118,0,245-1l-1,16c-4,60-4,73-5,90-62-4-106-5-209-5-47,0-67,0-124,2l-8,174c79,1,84,1,115,1,48,0,67,0,178-3-3,40-4,53-7,107l-38-1-108-1c-45,0-78,1-147,3l-8,183Z" transform="translate(-23.14 -23.15)"/><path d="M3109.29,951.61c-18,0-28,0-103,1,16-187,30-477,30-637v-30c67,1,67,1,97,1,27,0,27,0,122-2,29-1,60-1,78-1,123,0,191,19,246,70,57,53,89,137,89,236,0,111-39,212-106,276-66,63-148,87-297,87-22,0-52-1-86-1Zm127-101c119,0,175-18,222-72,39-45,61-112,61-187,0-64-16-116-48-152-35-40-81-55-168-55-36,0-67,1-127,3l-20,461C3188.29,849.61,3210.29,850.61,3236.29,850.61Z" transform="translate(-23.14 -23.15)"/><path d="M4317.28,406.61c-71-19-113-26-160-26-157,0-263,103-263,256,0,137,91,224,234,224,52,0,101-8,179-30-6,26-15,86-19,116-70,12-129,18-179,18-98,0-182-25-246-72-79-58-118-144-118-257,0-220,154-362,393-362,52,0,104,6,173,19l1,18,1,39,3,40Z" transform="translate(-23.14 -23.15)"/><path d="M4454.27,472.61c90-21,150-29,213-29,132,0,197,43,197,131,0,24-3,79-7,138-4,55-9,173-10,240-40-1-50-1-67-1s-25,0-71,1c5-46,10-132,16-258-32,21-36,23-111,44-77,22-109,47-109,86,0,40,31,63,84,63,28,0,45-3,80-15-8,22-14,41-24,83-41,7-61,9-93,9-63,0-109-13-137-40-25-23-41-64-41-102,0-45,23-84,65-113,33-23,88-41,177-60,79-16,108-37,108-73,0-35-33-55-88-55-60,0-116,12-196,43l6-35,6-43Z" transform="translate(-23.14 -23.15)"/><path d="M5102.25,1176.61c-44-1-53-1-69-1-13,0-22,0-73,1,16-182,32-532,32-705,122-22,174-28,244-28,100,0,168,23,211,71,40,44,63,111,63,185,0,156-91,265-223,265-73,0-124-23-177-82-2,60-6,128-7,204Zm141-309c77,0,131-71,131-173,0-95-52-153-137-153-34,0-66,6-111,19-5,39-9,109-9,153,0,50,10,84,34,111C5174.25,851.61,5208.25,867.61,5243.25,867.61Z" transform="translate(-23.14 -23.15)"/><path d="M5902.5,405.9c-41.11,124.6-125.83,404.72-150.94,498.42-1.81,6.76-7.24,27-12,48.29-52.87-1-57.7-1-68.32-1-11.6,0-16.42,0-70.78,1,47-128.47,166-514.84,198.72-644.27,69.29,1,69.29,1,92.47,1,24.15,0,24.15,0,112.56-1.94,22.48-1,50.49-1,65-1,70.51,0,102.25,7.73,130.29,32.84,31.84,29,41.56,79.21,26,137.16C6191.9,602,6074.46,687,5935.37,687c-22.22,0-38.12-1.93-66.77-6.76,1.9-25.11,2-72.44,1.4-91.76,23.12,3.86,36.12,5.79,55.44,5.79,82.11,0,142.5-41.53,160.87-110.11,7.25-27.05,3.8-50.23-10-63.75S6044.3,403,6000.83,403c-17.38,0-17.38,0-69.09,1.93Z" transform="translate(-23.14 -23.15)" style="fill:#900000"/><path d="M6439.76,596.19c25.75,4.83,38.05,5.79,56.4,5.79,86.93,0,156.09-45.4,174.72-114.94,15.53-58-18.05-84-105.95-84-10.62,0-14.23-1-55.31,1-10.63,0-15.72,1-44.7,1-44.22,136.2-123.31,398.93-164.13,547.68-54.8-1-59.63-1-73.16-1-15.45,0-21.25,0-71.73,1,58.86-158.41,138-410.52,200.64-644.27,70.26,1,70.26,1,99.23,1,24.15,0,24.15,0,91.32-1.94,23.44-1,50.49-1,70.77-1,88.87,0,131.68,9.66,165.26,35.74,35,28,44.85,70.51,29.32,128.47-16.3,60.85-58.81,114.94-114.94,147.78-25.39,15.46-45.29,21.25-113.7,38.64,14,56,23.89,94.66,39.6,147.79,20.07,65.68,33.54,109.15,35.78,118.8l6.73,29c-52.87-1-59.63-1-77-1s-23.18,0-78.5,1l-4.53-29.94L6497.12,858c-1.28-9.66-11-59.89-22.65-110.11l-28.25-121.71Z" transform="translate(-23.14 -23.15)" style="fill:#900000"/><path d="M6825.82,640.62c26.66-99.49,91.89-195.12,173.8-252.11,84.38-58.92,190.73-91.76,299.88-91.76,213.47,0,317,125.57,265,319.72C7507,830.91,7328.33,964.2,7099.41,964.2c-111.08,0-193.6-30.91-243.75-88.86C6808.85,819.31,6798.39,743,6825.82,640.62Zm304.63,222.16c134.26,0,250-96.59,288.54-240.51,37-138.13-22.77-225.06-153.16-225.06-136.2,0-257.52,99.49-295.57,241.48C6933.25,776.81,6995.22,862.78,7130.45,862.78Z" transform="translate(-23.14 -23.15)" style="fill:#900000"/><path d="M2577.32,1487.56c-12.16-.32-12.49-.32-14.4-.32s-3.53,0-15.05.32c3.52-34.56,8.32-164.17,8.32-213.45,22.73.32,24,.32,29.45.32,7.68,0,7.68.32,31.68-.32,5.44,0,13.44-.32,16.64-.32,22.08,0,33,2.56,42.88,10.24,11.84,9.28,18.56,24.32,18.56,41.6,0,39.68-30.72,66.24-75.84,66.24-8,0-14.08-.64-25-2.56-1.6-6.4-3.85-15-5.44-19.52,9.92,1.92,15.68,2.56,23.68,2.56,33.92,0,54.72-17.28,54.72-45.44,0-10.88-4.16-20.16-10.88-25.6-7-5.44-14.4-7.36-33-7l-31,.32h-9.28c-2.57,49-6.08,150.09-6.08,178.57Z" transform="translate(-23.14 -23.15)" style="fill:#900000"/><path d="M2726.44,1334c25-6.08,41-8.32,59.52-8.32,40.64,0,60.16,13.12,60.16,40.32,0,8.64-1,25.6-2.24,44.48-1.6,23-2.56,58.89-2.56,77.13-9.92-.32-11.52-.32-13.76-.32-1.92,0-4.16,0-14.4.32,2.88-27.2,2.88-29.44,5.12-81,0-1.59.32-5.44.64-12.16-12.16,9.28-13.76,9.92-45.12,18.57-32,8.63-45.44,19.2-45.44,35.52,0,16.64,12.8,26.24,35.84,26.24,11.52,0,18.56-1.28,33-5.76a193.1,193.1,0,0,0-5.12,18.88c-14.08,2.56-21.44,3.2-33,3.2-22.08,0-36.48-4.48-45.44-13.76-6.72-7-10.88-17.92-10.88-28.8,0-15.69,7.68-27.85,23.36-37.44,10.88-6.41,25.6-11.2,56.32-18.57,25.92-6.08,36.48-14.08,36.48-27.84,0-14.4-13.76-22.72-36.16-22.72-20.48,0-36.48,3.52-59.2,12.48,1-4.48,1.28-8,1.6-10.56Z" transform="translate(-23.14 -23.15)"/><path d="M2958.12,1487.24c-13.44,2.88-19.52,3.84-29.44,3.84-27.2,0-39.36-11.2-39.36-35.84,0-5.12.32-12.16,3.2-65.29l2.24-41.28H2874c.64-6.4.64-8.32,1-18.88h21.44L2898,1300c13.12-2.56,15.36-3.2,24.64-5.44-.64,14.72-1,26.56-1,35.2h43.2l-1,18.88h-43.2c-2.88,58.56-4.48,90.25-4.48,94.73,0,19.52,6.4,27.84,21.12,27.84,6.72,0,11.52-1,24.32-4.48Z" transform="translate(-23.14 -23.15)"/><path d="M2992.36,1329.15c10.56.32,11.84.32,14.4.32,2.24,0,3.84,0,14.4-.32-3.52,40.32-6.08,109.45-6.4,158.41-9.28-.32-11.2-.32-14.08-.32s-4.48,0-15,.32C2988.52,1456.52,2992,1376.83,2992.36,1329.15Zm30.08-33.92c-9-.64-11.2-.64-14.72-.64-3.2,0-5.44,0-15,.64.32-10.24.32-13.76.32-22.4,9.28.32,11.52.32,16,.32,4.8,0,6.4,0,14.4-.32Z" transform="translate(-23.14 -23.15)"/><path d="M3079.39,1401.47c-.32,5.12-.32,9.28-.32,12.49,0,35.84,22.4,58.88,57.61,58.88,14.08,0,27.84-2.88,49.28-9.92-1.28,5.76-2.24,12.48-3.52,21.76-20.16,4.8-32.32,6.4-48.32,6.4-28.49,0-48.33-7-62.41-22.08-13.12-14.08-19.84-33.92-19.84-57.29,0-52.8,31-86.08,80-86.08,42.56,0,67.84,24,67.84,64.64a65.32,65.32,0,0,1-1,10.88Zm94.41-13.12c0-13.76-1.6-20.16-5.76-27.84-6.72-11.52-18.88-17.92-35.21-17.92-15.36,0-29.44,5.76-38.72,16-6.72,7.68-9.92,14.72-13.12,29.76Z" transform="translate(-23.14 -23.15)"/><path d="M3256.36,1360.51c7-12.8,12.16-18.56,20.48-24,10.56-7,26.24-10.88,43.2-10.88,39.68,0,59.84,17,59.84,50.56,0,5.76-.64,19.2-1.28,32.64-1.92,38.09-3.2,63.05-3.2,78.73-6.08-.32-9.28-.32-13.76-.32s-8,0-14.08.32c2.56-27.52,5.76-87.37,5.76-101.13,0-25.92-14.72-39-42.88-39-26.56,0-46.4,15-52.48,40-4.17,16-5.76,42.89-6.72,100.17-8.32-.32-10.24-.32-13.77-.32s-5.12,0-14.72.32c5.13-65.6,7.68-118.41,8-158.41,9.61.32,11.21.32,14.08.32,3.21,0,4.81,0,13.45-.32Z" transform="translate(-23.14 -23.15)"/><path d="M3491.56,1487.24c-13.44,2.88-19.52,3.84-29.44,3.84-27.2,0-39.37-11.2-39.37-35.84,0-5.12.32-12.16,3.2-65.29l2.24-41.28h-20.8c.64-6.4.64-8.32,1-18.88h21.44l1.6-29.76c13.12-2.56,15.36-3.2,24.65-5.44-.64,14.72-1,26.56-1,35.2h43.2l-1,18.88h-43.2c-2.88,58.56-4.49,90.25-4.49,94.73,0,19.52,6.41,27.84,21.13,27.84,6.72,0,11.52-1,24.32-4.48Z" transform="translate(-23.14 -23.15)"/><path d="M3666.6,1294.27c-8.32,0-11.2.32-16.32.32-3.84,0-6.73,0-12.49-.32-3.2,69.12-5.44,139.52-6.08,193.29-12.16-.32-13.12-.32-15.36-.32s-4.16,0-15,.32c4.48-46.72,8.64-149.77,8.64-213.45,22.4.32,24.32.32,33,.32,8,0,8,0,25-.32,6.08-.32,13.12-.32,18.24-.32,25,0,38.08,3.52,49.6,13.12q16.32,13.44,16.32,37.44c0,22.4-11.2,41.92-29.76,52.48-9,5.12-18.24,7.36-38.08,9.6,16.32,26.57,16.64,26.57,58.88,92.17l5.76,9c-11.52-.32-13.44-.32-16.32-.32-3.2,0-5.12,0-16.64.32-19.2-36.8-19.2-36.8-62.4-107.21l-5.77-9.28c9.93,1.6,15.05,2.24,21.45,2.24,33.6,0,55-17.92,55-45.44,0-9.6-2.88-17.28-8.32-22.72-7.68-8-17.92-10.88-37.44-10.88Z" transform="translate(-23.14 -23.15)" style="fill:#900000"/><path d="M3797.48,1401.47c-.32,5.12-.32,9.28-.32,12.49,0,35.84,22.4,58.88,57.6,58.88,14.08,0,27.84-2.88,49.28-9.92-1.28,5.76-2.24,12.48-3.52,21.76-20.16,4.8-32.32,6.4-48.32,6.4-28.48,0-48.32-7-62.41-22.08-13.12-14.08-19.84-33.92-19.84-57.29,0-52.8,31.05-86.08,80-86.08,42.56,0,67.84,24,67.84,64.64a65.32,65.32,0,0,1-1,10.88Zm94.4-13.12c0-13.76-1.6-20.16-5.76-27.84-6.72-11.52-18.88-17.92-35.2-17.92-15.36,0-29.44,5.76-38.72,16-6.72,7.68-9.92,14.72-13.12,29.76Z" transform="translate(-23.14 -23.15)"/><path d="M3966.76,1545.48c0,2.24,0,7,.32,12.48-8.64-.32-10.56-.32-13.76-.32-3.52,0-5.12,0-14.72.32,3.84-44.48,8.32-161.93,9-223,33.92-7,50.56-9.28,71.36-9.28,29.12,0,49.92,7.68,63,22.72,11.52,13.76,17.92,34.24,17.92,56.65,0,51.2-29.44,86.08-72.64,86.08-14.4,0-28.16-3.84-38.72-10.88-6.72-4.48-11.52-9.92-19.2-21.12C3967.72,1515.4,3966.76,1544.2,3966.76,1545.48Zm7-185.61c-1,9.28-2.56,43.52-2.56,54.09,0,19.83,4.16,32.64,14.4,43.2a49.63,49.63,0,0,0,35.2,14.72c30.72,0,52.16-27.52,52.16-67.53,0-36.8-19.84-59.2-52.8-59.2-14.4,0-27.84,2.56-45.76,8.32Z" transform="translate(-23.14 -23.15)"/><path d="M4152.35,1344.83c13.44-11.84,35.52-19.2,57-19.2,49,0,78.73,29.44,78.73,78.08,0,24-8.32,47.69-22.08,63.37-14.08,16-35.21,24-62.73,24-47.68,0-77.76-31.36-77.76-81.61C4125.47,1383.87,4135.71,1359.23,4152.35,1344.83Zm51.52,126.73c35.84,0,57-25,57-67.52,0-37.45-18.56-58.57-50.88-58.57-35.52,0-57.28,24.64-57.28,65.28C4152.67,1448.84,4171.87,1471.56,4203.87,1471.56Z" transform="translate(-23.14 -23.15)"/><path d="M4346.27,1487.56c-9.92-.32-11.52-.32-13.44-.32-1.6,0-3.84,0-14.4.32,3.84-62.4,5.76-106.89,5.76-138.57,0-3.2,0-11.2-.32-19.84,8.64.32,9.92.32,13.44.32s4.8,0,12.8-.32l-1,25.92c12.8-21.76,25.28-29.44,48-29.44a48.2,48.2,0,0,1,12.8,1.6c0,9,.32,12.16,1,23-7.68-1.92-11.84-2.56-17.28-2.56-19.84,0-35.84,12.8-41.6,33.28-3.84,13.12-5.76,45.13-5.76,92.81Z" transform="translate(-23.14 -23.15)"/><path d="M4513.63,1487.24c-13.44,2.88-19.52,3.84-29.44,3.84-27.2,0-39.36-11.2-39.36-35.84,0-5.12.31-12.16,3.19-65.29l2.24-41.28h-20.8c.64-6.4.64-8.32,1-18.88h21.45l1.59-29.76c13.12-2.56,15.37-3.2,24.65-5.44-.64,14.72-1,26.56-1,35.2h43.2l-1,18.88h-43.2c-2.88,58.56-4.48,90.25-4.48,94.73,0,19.52,6.4,27.84,21.12,27.84,6.72,0,11.52-1,24.32-4.48Z" transform="translate(-23.14 -23.15)"/><path d="M4558.75,1401.47c-.32,5.12-.32,9.28-.32,12.49,0,35.84,22.4,58.88,57.6,58.88,14.08,0,27.84-2.88,49.28-9.92-1.28,5.76-2.24,12.48-3.52,21.76-20.16,4.8-32.32,6.4-48.32,6.4-28.48,0-48.32-7-62.4-22.08-13.12-14.08-19.84-33.92-19.84-57.29,0-52.8,31-86.08,80-86.08,42.56,0,67.84,24,67.84,64.64a65.32,65.32,0,0,1-1,10.88Zm94.4-13.12c0-13.76-1.6-20.16-5.76-27.84-6.72-11.52-18.88-17.92-35.2-17.92-15.36,0-29.44,5.76-38.72,16-6.72,7.68-9.92,14.72-13.12,29.76Z" transform="translate(-23.14 -23.15)"/><path d="M4829.15,1453.64c-15.36,26.88-32.32,37.44-59.84,37.44-41,0-68.16-28.8-68.16-72.33,0-25.28,9.28-50.56,24.64-66.56,17-17.6,41.28-26.56,72.32-26.56,10.88,0,19.2.64,34.24,3.2.32-14.08.64-22.4.64-34.24v-20.48c9.28.32,11.2.32,14.4.32,3.52,0,5.12,0,14.08-.32-3.84,51.84-8,162.25-8,201.93v11.52c-8.32-.32-9.92-.32-12.8-.32-2.56,0-4.16,0-13.44.32Zm-.64-105.93c-.32,0-1.92-.64-4.48-1.28a91,91,0,0,0-22.08-2.56c-24.32,0-44.16,8.32-56.64,23-10.56,12.8-17.28,32.32-17.28,50.56,0,32.33,18.88,53.77,47.68,53.77,26.56,0,46.08-18.88,51.2-49.28,1.92-11.53,4.16-50.57,4.16-73.61Z" transform="translate(-23.14 -23.15)"/><path d="M5005.46,1301.63c20.8-19.84,52.16-31,87.36-31,67.21,0,109.77,40.64,109.77,105.6,0,71-44.48,114.89-116.49,114.89-71,0-113-39.68-113-106.25C4973.14,1352.51,4985.62,1320.83,5005.46,1301.63ZM5087.38,1470c53.45,0,86.41-35.2,86.41-91.85,0-54.08-31-86.72-82.57-86.72-28.16,0-50.88,9.28-66.56,27.2-14.08,16.32-22.72,40.64-22.72,65C5001.94,1438,5033.62,1470,5087.38,1470Z" transform="translate(-23.14 -23.15)" style="fill:#900000"/><path d="M5358.42,1457.48c-6.72,12.48-11.2,17.92-19.52,23-10.24,6.72-25.6,10.56-42.24,10.56-39.36,0-59.84-17.6-59.84-51.2,0-4.48.64-16,1.28-26.25,2.24-37.44,3.52-70.72,3.2-84.48,9.92.32,11.52.32,14.4.32s4.48,0,13.44-.32c-3.2,39-6.08,87.68-6.08,101.45,0,13.44,3.2,22.72,9.6,28.8,7.36,6.4,19.52,10.24,32.64,10.24,26.88,0,46.08-14.4,52.16-39.36,3.2-13.77,5.12-45.77,6.08-101.13,10.24.32,11.84.32,14.4.32,3.2,0,4.8,0,13.12-.32-4.8,67.2-7,116.49-7.36,158.41-6.4-.32-9.28-.32-13.12-.32s-7,0-12.8.32Z" transform="translate(-23.14 -23.15)"/><path d="M5502.1,1487.24c-13.44,2.88-19.52,3.84-29.44,3.84-27.2,0-39.36-11.2-39.36-35.84,0-5.12.32-12.16,3.2-65.29l2.24-41.28h-20.8c.64-6.4.64-8.32,1-18.88h21.44l1.6-29.76c13.12-2.56,15.36-3.2,24.64-5.44-.64,14.72-1,26.56-1,35.2h43.2l-1,18.88h-43.2c-2.88,58.56-4.48,90.25-4.48,94.73,0,19.52,6.4,27.84,21.12,27.84,6.72,0,11.52-1,24.32-4.48Z" transform="translate(-23.14 -23.15)"/><path d="M5642.9,1475.4c-.64,3.52-1.28,6.4-1.92,11.2a178.18,178.18,0,0,1-40,4.48c-49.28,0-77.12-28.16-77.12-77.77,0-25.6,7.68-49.28,21.12-64.64,13.44-15.68,32.64-23,60.48-23,15.36,0,26.88,1.6,43.2,5.76l.32,3.84.32,7c0,1.28.32,3.52,1,11.2-18.88-6.08-29.44-8-41.28-8-35.84,0-57.92,25.6-57.92,67.2,0,37.77,19.84,58.57,55.36,58.57,11.2,0,22.4-2.24,38.4-7.36l-.64,3.84Z" transform="translate(-23.14 -23.15)"/><path d="M5701.77,1344.83c13.44-11.84,35.52-19.2,57-19.2,49,0,78.73,29.44,78.73,78.08,0,24-8.33,47.69-22.09,63.37-14.08,16-35.2,24-62.72,24-47.68,0-77.76-31.36-77.76-81.61C5674.89,1383.87,5685.13,1359.23,5701.77,1344.83Zm51.52,126.73c35.84,0,57-25,57-67.52,0-37.45-18.56-58.57-50.88-58.57-35.52,0-57.28,24.64-57.28,65.28C5702.09,1448.84,5721.29,1471.56,5753.29,1471.56Z" transform="translate(-23.14 -23.15)"/><path d="M5899.85,1358.27c7-11.84,11.2-17,18.88-22.08a64.65,64.65,0,0,1,35.84-10.56c15.68,0,30.4,5.76,38.72,15.36,3.84,4.48,5.76,8.32,8.32,17,12.8-22.4,29.44-32.32,55-32.32,31,0,49.92,16,49.92,42.24,0,5.44-.64,14.72-1.28,24.64-2.24,28.49-4.16,76.17-4.16,95-7.68-.32-9.6-.32-13.12-.32-3.2,0-5.12,0-14.4.32,2.56-33.6,5.76-95.37,5.76-109.13,0-20.48-10.88-31.36-32-31.36-19.84,0-35.84,12.8-41.6,33-4.48,15.68-4.48,17-7,107.53-8.64-.32-10.24-.32-13.44-.32s-4.8,0-14.4.32c2.56-30.72,5.44-90.57,5.44-107.53,0-21.44-11.2-33.28-31.36-33.28-19.2,0-35.2,12.8-41.28,32.64-4.8,16-7.68,50.89-8,108.17-9.28-.32-10.88-.32-13.76-.32s-4.48,0-14.08.32c2.56-27.52,6.72-121.93,7-158.41,6.72.32,9.6.32,13.44.32s6.72,0,12.8-.32Z" transform="translate(-23.14 -23.15)"/><path d="M6165.44,1401.47c-.32,5.12-.32,9.28-.32,12.49,0,35.84,22.4,58.88,57.61,58.88,14.08,0,27.84-2.88,49.28-9.92-1.28,5.76-2.24,12.48-3.52,21.76-20.16,4.8-32.32,6.4-48.32,6.4-28.49,0-48.33-7-62.41-22.08-13.12-14.08-19.84-33.92-19.84-57.29,0-52.8,31-86.08,80-86.08,42.57,0,67.85,24,67.85,64.64a65.32,65.32,0,0,1-1,10.88Zm94.41-13.12c0-13.76-1.6-20.16-5.76-27.84-6.72-11.52-18.88-17.92-35.21-17.92-15.36,0-29.44,5.76-38.72,16-6.72,7.68-9.92,14.72-13.12,29.76Z" transform="translate(-23.14 -23.15)"/><path d="M6302.4,1480.84l-.64-8.32c0-1-.32-3.84-1.28-11.2,17.92,7.68,30.4,10.56,44.48,10.56,20.16,0,32.64-8.64,32.64-22.72,0-7.36-3.2-13.12-11.2-20.48-2.88-2.89-3.2-2.89-20.16-16.64-10.24-8.33-15-12.49-19.2-16.65q-15.36-15.36-15.36-31.68c0-23.36,20.48-38.08,53.76-38.08,11.2,0,22.72,1.28,38.4,4.16l1.6,22.4c-13.44-5.44-22.72-7.36-33.92-7.36-20.8,0-33,7.68-33,20.48,0,7,3.52,13.12,11.2,20.16,3.84,3.52,5.76,4.8,18.56,15.36,8.64,6.72,14.4,11.84,18.24,15.37,11.84,10.55,17.6,22.72,17.6,34.88,0,23.68-22.08,40-54.72,40-14.4,0-30.4-2.24-46.72-6.4Z" transform="translate(-23.14 -23.15)"/></svg>